<svg width="41" height="41" viewBox="0 0 41 41" fill="none" xmlns="http://www.w3.org/2000/svg">
<g clip-path="url(#clip0_2_150)">
<path d="M15.0657 0.705322C17.1043 0.705456 18.7619 2.36296 18.762 4.40161V15.1907C18.7619 17.2292 17.1042 18.8868 15.0657 18.887H4.27667C2.23802 18.887 0.580517 17.2292 0.580383 15.1907V4.40161C0.580383 2.36287 2.23794 0.705322 4.27667 0.705322H15.0657ZM4.27667 2.70337C3.34065 2.70337 2.57843 3.46559 2.57843 4.40161V15.1907C2.57856 16.1266 3.34073 16.8889 4.27667 16.8889H15.0657C16.0016 16.8888 16.7638 16.1265 16.764 15.1907V4.40161C16.764 3.46567 16.0016 2.7035 15.0657 2.70337H4.27667Z" fill="#3D3D3F" stroke="#3D3D3F" stroke-width="0.2"/>
<path d="M36.2258 0.705322L36.4152 0.710205C38.366 0.809242 39.922 2.42651 39.9221 4.40161V15.1907C39.9219 17.2292 38.2642 18.8868 36.2258 18.887H25.4367C23.3981 18.887 21.7406 17.2292 21.7404 15.1907V4.40161C21.7404 2.36287 23.398 0.705322 25.4367 0.705322H36.2258ZM25.4367 2.70337C24.5007 2.70337 23.7385 3.46559 23.7385 4.40161V15.1907C23.7386 16.1266 24.5008 16.8889 25.4367 16.8889H36.2258C37.1616 16.8888 37.9239 16.1265 37.924 15.1907V4.40161C37.924 3.46568 37.1617 2.70351 36.2258 2.70337H25.4367Z" fill="#3D3D3F" stroke="#3D3D3F" stroke-width="0.2"/>
<path d="M15.0657 22.2836C17.1043 22.2837 18.7619 23.9412 18.762 25.9799V36.7689C18.7619 38.8075 17.1042 40.4651 15.0657 40.4652H4.27667C2.23802 40.4652 0.580518 38.8075 0.580383 36.7689V25.9799C0.580383 23.9411 2.23794 22.2836 4.27667 22.2836H15.0657ZM4.27667 24.2816C3.34065 24.2816 2.57843 25.0438 2.57843 25.9799V36.7689C2.57857 37.7048 3.34074 38.4672 4.27667 38.4672H15.0657C16.0016 38.467 16.7638 37.7047 16.764 36.7689V25.9799C16.764 25.0439 16.0016 24.2818 15.0657 24.2816H4.27667Z" fill="#3D3D3F" stroke="#3D3D3F" stroke-width="0.2"/>
<path d="M36.2258 22.2836C38.2643 22.2837 39.922 23.9412 39.9221 25.9799V36.7689C39.9219 38.8075 38.2642 40.4651 36.2258 40.4652H25.4367C23.3981 40.4652 21.7406 38.8075 21.7404 36.7689V25.9799C21.7404 23.9411 23.398 22.2836 25.4367 22.2836H36.2258ZM25.4367 24.2816C24.5007 24.2816 23.7385 25.0438 23.7385 25.9799V36.7689C23.7386 37.7048 24.5008 38.4672 25.4367 38.4672H36.2258C37.1616 38.467 37.9239 37.7047 37.924 36.7689V25.9799C37.924 25.0439 37.1617 24.2818 36.2258 24.2816H25.4367Z" fill="#3D3D3F" stroke="#3D3D3F" stroke-width="0.2"/>
</g>
<defs>
<clipPath id="clip0_2_150">
<rect x="0.679993" y="0.804932" width="39.56" height="39.56" rx="3" fill="white"/>
</clipPath>
</defs>
</svg>
