<svg width="18" height="14" viewBox="0 0 18 14" fill="none" xmlns="http://www.w3.org/2000/svg">
<path fill-rule="evenodd" clip-rule="evenodd" d="M17.2748 2.14207C16.6664 2.41237 16.0116 2.59441 15.3248 2.6766C16.0259 2.25626 16.5643 1.59098 16.8175 0.798283C16.1622 1.18774 15.4346 1.46963 14.6617 1.62243C14.0422 0.962672 13.1591 0.550049 12.1832 0.550049C10.3082 0.550049 8.78791 2.07036 8.78791 3.94537C8.78791 4.21125 8.81825 4.47052 8.87617 4.71931C6.054 4.57809 3.55234 3.22603 1.87757 1.17174C1.5852 1.67318 1.41806 2.25626 1.41806 2.87851C1.41806 4.05625 2.01658 5.09553 2.92844 5.70454C2.37128 5.68688 1.84833 5.53408 1.38992 5.27978V5.32225C1.38992 6.96778 2.56105 8.3397 4.11335 8.65247C3.8287 8.7297 3.52862 8.77163 3.21915 8.77163C3.00015 8.77163 2.78722 8.75011 2.5798 8.71039C3.01173 10.0591 4.26615 11.0411 5.75171 11.0686C4.58996 11.9788 3.12592 12.5222 1.535 12.5222C1.26029 12.5222 0.989988 12.5062 0.724651 12.4742C2.22731 13.4374 4.01185 14 5.92933 14C12.1744 14 15.5896 8.82624 15.5896 4.33978C15.5896 4.1925 15.5868 4.04577 15.5796 3.90069C16.2438 3.42076 16.8197 2.82279 17.2748 2.14207Z" fill="white"/>
</svg>
